<svg xmlns="http://www.w3.org/2000/svg" xmlns:xlink="http://www.w3.org/1999/xlink" id="Camada_1" x="0px" y="0px" viewBox="0 0 1500 580.2" style="enable-background:new 0 0 1500 580.2;" xml:space="preserve"><style type="text/css">	.st0{fill-rule:evenodd;clip-rule:evenodd;fill:#C6C6C5;}	.st1{fill-rule:evenodd;clip-rule:evenodd;fill:#FFFFFF;}	.st2{fill-rule:evenodd;clip-rule:evenodd;fill:#636362;}	.st3{fill-rule:evenodd;clip-rule:evenodd;fill:#FE5B00;}</style><g>	<g>		<path class="st0" d="M1039.6,131.1c0,0,12.8-18.4,12.8-41.9c0-76.1-94.3-84.8-94.3-84.8s-78.7-1.7-130.6-1.7   c-0.1,12.1,0.5,23.3,1.5,33.7c1.1,11.8,2.7,22.5,4.8,32.1L644,72.4c0,0-41.6,0.6-81.2,40.2c-41.9,41.9-38,77.9-38,77.9   s-0.6,58.9-0.6,91.8c0,32.9-36.3,103.3-36.3,103.3h182l-18.4-91c0,0,35.7,0.6,47.4,0.6c11.7,0,20.6-7.8,20.6-7.8l-2.8,12.3V385   h63.5l0,1.2l0.5-1.2h82.9c0,0,0-17.3-7.8-50.8c-7.8-33.5-33.7-52.5-33.7-52.5l31-45.7h17.8c-0.1,1.7-1.2,36.9,18.5,69.3   c1,2.1,1.6,3.3,1.6,3.3s-6.7,5-6.7,34.6c0,29.6,9.5,54.1,9.5,54.1s26.2-12.3,36.3-19.5c-5.6-9.5-1.7-34.1-1.7-34.1l0.4-0.6   c17.1,9.5,39.4,15.8,68.1,16.6c-20.9-19.6-34.9-36.4-44.4-50.8c2.2-3.3,25.7-37.4,54-65.6c35.2-35.2,34.1-69.8,34.1-69.8   L1039.6,131.1z"></path>		<path class="st1" d="M872.8,235.7h60.7c0,0-7.5,38.5,20.3,76.9c27.8,38.5,43.2,47,43.2,47s-38.6,0.2-69.8-16.3   c-31.2-16.5-47.4-51.5-53.5-73.3c-6-21.8-3.9-35.1-3.9-35.1L872.8,235.7z"></path>		<path class="st2" d="M983.5,163.6c-7,0-12.6,5.7-12.6,12.6c0,7,5.7,12.7,12.6,12.7c7,0,12.7-5.7,12.7-12.7   C996.2,169.3,990.5,163.6,983.5,163.6z"></path>		<path class="st2" d="M1036.9,173.6c0,0.3,0.7,33.8-33.3,67.8c-24.1,24.1-45,52.8-52,62.7c-17.4-28.3-16.6-47.5-16-63   c0.1-1.7,0.1-3.4,0.2-5l0.1-2.7h-68.6l0,0.1h-16.7l-31.8,46.9l-1.4,2.1l2.1,1.5c0,0,0.3,0.3,0.9,0.7l-3.2-1.9l-38.9,65.9l-0.3,0.6   l-1.2,33.2h-58.3v-82.4l2.1-9.1l18-34.6l-4.7-2.4l-15.9,30.7l-1,0.9c-0.1,0.1-8.3,7.2-18.9,7.2c-6.3,0-19.6-0.2-30.5-0.3   l-35.4-2.5l18.4-37.1l-4.8-2.4l-65.7,132.7h-88.7c7.7-15.4,34.6-71.5,34.6-100.6c0-32.5,0.5-91.2,0.6-91.8v-0.2l0-0.2   c0-0.1-0.9-8.9,3.3-22.5c6.9-22.9,22.3-41.6,33.9-53.2c20-20,40.5-29.7,54.2-34.2c14.9-5,25.1-5.2,25.2-5.2l187.6-3.9   c1.3,5.5,2.7,10.9,4.3,16.1c5.9,18.8,14.1,34.9,24.5,47.9c9.3,11.6,18.6,18.5,24.7,22.2c6.8,4.1,11.4,5.4,11.6,5.5l1.5-5.1   c-0.2-0.1-16.8-5-33.6-25.9c-9.9-12.4-17.9-28-23.5-46.2c-1.5-4.7-2.8-9.6-4-14.6l0.4,0l-0.7-3.2c-2.3-9.8-4-20.2-5.1-31.1   c-0.9-10-1.4-20.5-1.4-31.5c50.4,0,124.4,1.6,127.6,1.7c1.6,0.2,24,2.6,46.1,13.6c13.3,6.6,23.9,15,31.5,24.8   c9.4,12.3,14.2,27,14.2,43.7c0,22.3-12.2,40.2-12.3,40.3l-0.5,0.7L1036.9,173.6L1036.9,173.6z M988.9,356.8   c-60.9-59-59.6-91.8-58.6-115.9c0-0.8,0.1-1.5,0.1-2.2H873c0.4,26.8,12.8,55.5,17.5,65.2c3.5,5.8,7.8,11.6,12.8,17.1   C923.4,342.5,952.2,354.5,988.9,356.8L988.9,356.8z M894.2,393.7c6.4-3.1,22.8-11.1,31.4-16.8c-3.9-9.9-1.7-27.8-1.1-32.5   c-9.4-5.4-17.8-12.1-25.1-19.9c-3.5-3.7-6.5-7.6-9.3-11.5c-1.7,3.6-4.3,12.1-4.3,30.2C885.9,366.3,891.9,386.5,894.2,393.7   L894.2,393.7z M852.2,334.8c-6.2-26.5-24.3-43.8-30.6-49.2l-38.4,65.1l-1.2,31.7h77.8C859.5,376.4,858.1,360.3,852.2,334.8   L852.2,334.8z M665.6,382.9L648,296.2l-18.6-1.3l-43.6,88.1H665.6L665.6,382.9z M1041.1,131.8c2.4-3.8,12.8-21,12.8-42.6   c0-18-5.1-33.8-15.3-47c-8.1-10.5-19.3-19.4-33.4-26.4C981.5,4.1,958.1,1.8,957.2,1.7l-0.2,0c-0.8,0-79.3-1.7-130.7-1.7h-2.6   l0,2.6c-0.1,12,0.5,23.6,1.6,34.7c0.9,10,2.3,19.5,4.2,28.6l-186.5,3.9c-0.4,0-11,0.2-26.6,5.4c-25.9,8.6-45,24.1-56.5,35.6   c-22.1,22.1-31.4,42.5-35.4,55.8c-4.1,13.7-3.5,22.7-3.4,24.1c0,3.2-0.6,59.9-0.6,91.7c0,12-5,29.4-11.4,46.4l-0.3,0   c-1,2.8-2.4,6.4-3.9,10.5l0.2,0c-1,2.6-2.1,5.1-3.1,7.6c-5.4,13.6-12.2,30.1-18.3,41.5l2.4,0l0,0h186.2l-18.4-90.9   c3.1,0,7.9,0.1,13.4,0.2l7.3,0.5l0-0.4c9.1,0.1,18.4,0.2,23.4,0.2c6.7,0,12.5-2.3,16.6-4.5l-1.4,6v88.4h152.1V385   c0-0.7-0.1-18-7.9-51.4c-6.8-29-26.3-47.2-32.8-52.5l28.8-42.5h13.7c0,4.7,0.5,14.9,3.2,27.5c2.4,11.1,6.9,25.7,15.5,40   c0.4,0.8,0.7,1.4,1,2c-2.4,3.4-6.2,12.4-6.2,35c0,29.7,9.3,54.1,9.7,55.1l1,2.7l2.6-1.2c1.1-0.5,26.6-12.5,36.7-19.8l2-1.4   l-1.2-2.1c-3.7-6.2-2.7-21.2-1.8-29.3c18.4,9.5,40.6,14.6,66.3,15.3l7,0.2l-5.1-4.8c-20-18.8-33.7-34.9-43-48.9   c5.2-7.5,27.1-38.2,52.6-63.8c18.6-18.6,27-37,30.9-49.2c4.2-13.3,4-22.2,3.9-22.6L1041.1,131.8z"></path>	</g>	<path class="st3" d="M0,459.8v120.5h38.8v-89.1h28.1v89.1h38.8v-89.1h28.1v89.1h38.8V484c0-13.4-10.9-24.3-24.3-24.3H0z"></path>	<path class="st3" d="M316.1,491.1v-31.4H215.8c-13.4,0-24.3,10.9-24.3,24.3v96.2h124.6v-31.4h-93.3v-13.2h77.7v-31.4h-77.7v-13.2  H316.1z"></path>	<path class="st3" d="M1500,491.1v-31.4h-100.3c-13.4,0-24.3,10.9-24.3,24.3v96.2H1500v-31.4h-93.3v-13.2h77.7v-31.4h-77.7v-13.2  H1500z"></path>	<path class="st3" d="M924,484V556c0,13.4,10.9,24.3,24.3,24.3h81.4c13.4,0,24.3-10.9,24.3-24.3V484c0-13.4-10.9-24.3-24.3-24.3  h-81.4C934.8,459.8,924,470.6,924,484z M955.2,548.9v-57.7h67.5v57.7H955.2z"></path>	<path class="st3" d="M910,491.1v-31.4H806.3c-13.4,0-24.3,10.9-24.3,24.3v96.2h31.2v-44.5h78.9v-31.4h-78.9v-13.2H910z"></path>	<polygon class="st3" points="661.9,555.3 661.9,459.8 630.7,459.8 630.7,580.2 641.5,580.2 661.9,580.2 762,580.2 762,555.3  "></polygon>	<path class="st3" d="M483.6,484v96.2h31.2v-44.5h67.6v44.5h31.2V484c0-13.4-10.9-24.3-24.3-24.3h-81.5  C494.4,459.8,483.6,470.6,483.6,484z M514.8,504.3v-13.2h67.6v13.2H514.8z"></path>	<polygon class="st3" points="461.3,459.8 413.1,459.8 383.1,459.8 334.9,459.8 334.9,491.1 383.1,491.1 383.1,580.2 413.1,580.2   413.1,491.1 461.3,491.1  "></polygon>	<polygon class="st3" points="1349.1,459.8 1300.9,459.8 1270.9,459.8 1222.7,459.8 1222.7,491.1 1270.9,491.1 1270.9,580.2   1300.9,580.2 1300.9,491.1 1349.1,491.1  "></polygon>	<path class="st3" d="M1204.9,508.5v-23.9c0-13.4-10.9-24.3-24.3-24.3h-102.8v119.9h29.6v-47.5h59.8c4.5,0,8.1,3.6,8.1,8.1v39.4  h29.6v-38.5c0-6.4-2.8-12-7.3-15.9C1202.1,521.4,1204.9,515.3,1204.9,508.5z M1107.4,491.1h61.3c3.6,0,6.6,3,6.6,6.6l0,0  c0,3.6-3,6.6-6.6,6.6h-61.3V491.1z"></path></g></svg>