<?xml version="1.0" encoding="UTF-8"?>
<svg xmlns="http://www.w3.org/2000/svg" xmlns:xlink="http://www.w3.org/1999/xlink" width="727.2pt" height="268.8pt" viewBox="0 0 727.2 268.8" version="1.1">
<defs>
<clipPath id="clip1">
  <path d="M 285 244 L 725 244 L 725 268.800781 L 285 268.800781 Z M 285 244 "/>
</clipPath>
</defs>
<g id="surface1">
<path style=" stroke:none;fill-rule:evenodd;fill:rgb(93.359375%,43.920898%,1.960754%);fill-opacity:1;" d="M 447.164063 78.65625 C 458.207031 78.65625 464.011719 88.273438 464.011719 97.886719 C 464.109375 107.496094 458.492188 117.117188 448.113281 117.117188 L 398.792969 117.117188 C 367.46875 117.117188 341.382813 143.300781 341.382813 175.390625 C 341.382813 207.574219 360.042969 235.46875 399.550781 235.566406 L 565.21875 236.035156 L 565.316406 100.074219 C 565.316406 71.132813 607.304688 69.992188 607.304688 99.03125 L 607.304688 235.277344 L 645.390625 235.277344 L 645.390625 99.125 C 645.007813 71.039063 686.140625 70.9375 684.90625 99.125 L 685 235.277344 L 725.753906 235.277344 L 726.410156 78.839844 C 727.269531 56.46875 711.5625 36.953125 684.710938 37.429688 L 566.273438 37.429688 C 533.417969 37.238281 525.617188 64.660156 525.617188 78.269531 L 525.617188 196.621094 L 503.144531 196.621094 L 502.886719 78.25 C 502.695313 42.257813 477.816406 38.097656 459.25 38.097656 L 323.960938 37.804688 L 323.960938 -0.0859375 L 283.867188 -0.0859375 L 283.867188 37.804688 L 162 38.953125 C 126.96875 39.332031 100.308594 63.417969 100.308594 97.980469 C 100.308594 132.546875 119.445313 158.917969 159.4375 158.25 L 209.039063 157.488281 C 235.988281 157.015625 235.988281 197.003906 208.84375 196.90625 L 0.046875 196.429688 L 0.046875 234.519531 L 202.753906 235.277344 C 249.789063 235.46875 265.789063 206.144531 265.789063 176.242188 C 265.789063 146.441406 249.695313 117.40625 207.136719 117.882813 L 159.8125 118.453125 C 133.253906 118.738281 133.058594 78.75 159.339844 78.75 L 283.867188 78.558594 L 283.867188 235.75 L 323.960938 235.75 L 323.960938 78.558594 Z M 463.535156 197.191406 L 398.460938 197.121094 C 386.558594 197.027344 379.839844 188.050781 379.839844 176.4375 C 379.941406 164.820313 389.363281 157.109375 398.792969 157.109375 L 463.535156 157.015625 Z M 463.535156 197.191406 "/>
<g clip-path="url(#clip1)" clip-rule="nonzero">
<path style=" stroke:none;fill-rule:evenodd;fill:rgb(10.594177%,9.812927%,9.423828%);fill-opacity:1;" d="M 285.464844 268.363281 L 285.464844 245.226563 L 301.078125 245.226563 L 301.078125 247.957031 L 288.53125 247.957031 L 288.53125 255.121094 L 299.386719 255.121094 L 299.386719 257.855469 L 288.53125 257.855469 L 288.53125 268.363281 Z M 305.121094 268.363281 L 305.121094 245.226563 L 321.847656 245.226563 L 321.847656 247.957031 L 308.179688 247.957031 L 308.179688 255.042969 L 320.980469 255.042969 L 320.980469 257.757813 L 308.179688 257.757813 L 308.179688 265.632813 L 322.386719 265.632813 L 322.386719 268.363281 Z M 343.121094 260.25 L 346.1875 261.027344 C 345.546875 263.539063 344.390625 265.457031 342.722656 266.78125 C 341.054688 268.101563 339.015625 268.757813 336.605469 268.757813 C 334.109375 268.757813 332.082031 268.25 330.523438 267.238281 C 328.960938 266.21875 327.769531 264.75 326.953125 262.824219 C 326.140625 260.898438 325.730469 258.828125 325.730469 256.621094 C 325.730469 254.210938 326.191406 252.109375 327.109375 250.316406 C 328.03125 248.523438 329.339844 247.160156 331.042969 246.226563 C 332.742188 245.296875 334.609375 244.832031 336.652344 244.832031 C 338.96875 244.832031 340.914063 245.417969 342.492188 246.597656 C 344.070313 247.78125 345.167969 249.433594 345.789063 251.570313 L 342.777344 252.28125 C 342.238281 250.597656 341.464844 249.375 340.441406 248.605469 C 339.421875 247.832031 338.140625 247.449219 336.585938 247.449219 C 334.808594 247.449219 333.328125 247.875 332.132813 248.726563 C 330.9375 249.585938 330.09375 250.726563 329.617188 252.164063 C 329.132813 253.597656 328.890625 255.078125 328.890625 256.605469 C 328.890625 258.574219 329.175781 260.289063 329.746094 261.757813 C 330.320313 263.226563 331.210938 264.324219 332.421875 265.050781 C 333.636719 265.777344 334.945313 266.140625 336.355469 266.140625 C 338.070313 266.140625 339.519531 265.644531 340.710938 264.65625 C 341.898438 263.667969 342.703125 262.195313 343.121094 260.25 Z M 350.050781 268.363281 L 350.050781 245.226563 L 353.117188 245.226563 L 353.117188 254.730469 L 365.140625 254.730469 L 365.140625 245.226563 L 368.207031 245.226563 L 368.207031 268.363281 L 365.140625 268.363281 L 365.140625 257.460938 L 353.117188 257.460938 L 353.117188 268.363281 Z M 370.761719 268.363281 L 379.648438 245.226563 L 382.945313 245.226563 L 392.417969 268.363281 L 388.925781 268.363281 L 386.226563 261.355469 L 376.550781 261.355469 L 374.015625 268.363281 Z M 377.433594 258.859375 L 385.285156 258.859375 L 382.867188 252.457031 C 382.132813 250.511719 381.582031 248.910156 381.226563 247.65625 C 380.933594 249.140625 380.515625 250.613281 379.976563 252.078125 Z M 394.863281 268.363281 L 394.863281 245.226563 L 402.832031 245.226563 C 404.632813 245.226563 406.003906 245.339844 406.953125 245.558594 C 408.277344 245.863281 409.410156 246.417969 410.347656 247.214844 C 411.566406 248.246094 412.480469 249.5625 413.082031 251.167969 C 413.691406 252.773438 413.996094 254.605469 413.996094 256.667969 C 413.996094 258.425781 413.789063 259.980469 413.375 261.339844 C 412.964844 262.695313 412.441406 263.824219 411.796875 264.710938 C 411.15625 265.601563 410.453125 266.300781 409.691406 266.808594 C 408.929688 267.320313 408.007813 267.707031 406.929688 267.972656 C 405.847656 268.234375 404.609375 268.363281 403.214844 268.363281 Z M 397.921875 265.632813 L 402.863281 265.632813 C 404.386719 265.632813 405.589844 265.492188 406.457031 265.207031 C 407.324219 264.921875 408.015625 264.523438 408.53125 264.007813 C 409.257813 263.285156 409.824219 262.304688 410.226563 261.082031 C 410.632813 259.851563 410.835938 258.371094 410.835938 256.621094 C 410.835938 254.199219 410.4375 252.34375 409.648438 251.042969 C 408.847656 249.738281 407.886719 248.871094 406.75 248.429688 C 405.929688 248.113281 404.605469 247.957031 402.789063 247.957031 L 397.921875 247.957031 Z M 433.390625 245.226563 L 436.453125 245.226563 L 436.453125 258.597656 C 436.453125 260.917969 436.191406 262.765625 435.664063 264.136719 C 435.136719 265.503906 434.1875 266.613281 432.8125 267.46875 C 431.4375 268.332031 429.640625 268.757813 427.410156 268.757813 C 425.242188 268.757813 423.464844 268.386719 422.09375 267.636719 C 420.710938 266.894531 419.726563 265.8125 419.140625 264.394531 C 418.546875 262.976563 418.257813 261.046875 418.257813 258.597656 L 418.257813 245.226563 L 421.316406 245.226563 L 421.316406 258.582031 C 421.316406 260.589844 421.503906 262.070313 421.875 263.019531 C 422.25 263.972656 422.894531 264.707031 423.800781 265.222656 C 424.710938 265.742188 425.824219 266 427.140625 266 C 429.390625 266 430.996094 265.488281 431.957031 264.464844 C 432.910156 263.445313 433.390625 261.484375 433.390625 258.582031 Z M 441.601563 268.363281 L 441.601563 245.226563 L 451.855469 245.226563 C 453.921875 245.226563 455.488281 245.433594 456.5625 245.851563 C 457.632813 246.265625 458.488281 246.996094 459.136719 248.046875 C 459.777344 249.105469 460.09375 250.269531 460.09375 251.539063 C 460.09375 253.183594 459.566406 254.5625 458.5 255.6875 C 457.4375 256.8125 455.796875 257.53125 453.578125 257.835938 C 454.390625 258.226563 455.003906 258.609375 455.421875 258.992188 C 456.316406 259.808594 457.164063 260.839844 457.964844 262.066406 L 461.992188 268.363281 L 458.140625 268.363281 L 455.078125 263.546875 C 454.183594 262.164063 453.445313 261.097656 452.863281 260.363281 C 452.289063 259.625 451.769531 259.109375 451.3125 258.816406 C 450.855469 258.523438 450.390625 258.316406 449.917969 258.199219 C 449.566406 258.128906 449.003906 258.089844 448.210938 258.089844 L 444.660156 258.089844 L 444.660156 268.363281 Z M 444.660156 255.441406 L 451.242188 255.441406 C 452.640625 255.441406 453.738281 255.292969 454.523438 255.003906 C 455.316406 254.714844 455.914063 254.25 456.324219 253.613281 C 456.734375 252.976563 456.9375 252.289063 456.9375 251.539063 C 456.9375 250.445313 456.542969 249.546875 455.746094 248.839844 C 454.957031 248.132813 453.699219 247.785156 451.980469 247.785156 L 444.660156 247.785156 Z M 462.351563 268.363281 L 471.242188 245.226563 L 474.539063 245.226563 L 484.011719 268.363281 L 480.519531 268.363281 L 477.820313 261.355469 L 468.144531 261.355469 L 465.605469 268.363281 Z M 469.027344 258.859375 L 476.875 258.859375 L 474.457031 252.457031 C 473.726563 250.511719 473.175781 248.910156 472.820313 247.65625 C 472.523438 249.140625 472.109375 250.613281 471.570313 252.078125 Z M 485.414063 260.929688 L 488.304688 260.675781 C 488.4375 261.835938 488.757813 262.78125 489.257813 263.527344 C 489.757813 264.269531 490.535156 264.867188 491.585938 265.324219 C 492.636719 265.785156 493.820313 266.011719 495.136719 266.011719 C 496.304688 266.011719 497.332031 265.839844 498.226563 265.492188 C 499.121094 265.144531 499.789063 264.667969 500.226563 264.066406 C 500.660156 263.457031 500.882813 262.800781 500.882813 262.082031 C 500.882813 261.355469 500.671875 260.726563 500.246094 260.179688 C 499.828125 259.636719 499.132813 259.183594 498.167969 258.816406 C 497.542969 258.574219 496.175781 258.199219 494.046875 257.6875 C 491.921875 257.175781 490.429688 256.695313 489.582031 256.242188 C 488.476563 255.667969 487.652344 254.945313 487.109375 254.085938 C 486.570313 253.230469 486.300781 252.273438 486.300781 251.207031 C 486.300781 250.042969 486.628906 248.949219 487.289063 247.933594 C 487.953125 246.917969 488.921875 246.148438 490.195313 245.617188 C 491.472656 245.097656 492.882813 244.832031 494.441406 244.832031 C 496.15625 244.832031 497.667969 245.105469 498.980469 245.660156 C 500.289063 246.210938 501.296875 247.023438 502.003906 248.097656 C 502.703125 249.167969 503.085938 250.386719 503.140625 251.746094 L 500.203125 251.964844 C 500.042969 250.503906 499.507813 249.394531 498.597656 248.652344 C 497.6875 247.902344 496.347656 247.53125 494.570313 247.53125 C 492.714844 247.53125 491.367188 247.871094 490.519531 248.550781 C 489.671875 249.226563 489.246094 250.046875 489.246094 251 C 489.246094 251.835938 489.546875 252.519531 490.144531 253.054688 C 490.738281 253.59375 492.273438 254.140625 494.761719 254.703125 C 497.25 255.269531 498.960938 255.757813 499.886719 256.179688 C 501.234375 256.804688 502.230469 257.589844 502.871094 258.539063 C 503.511719 259.492188 503.832031 260.589844 503.832031 261.828125 C 503.832031 263.0625 503.480469 264.222656 502.773438 265.308594 C 502.070313 266.398438 501.054688 267.242188 499.734375 267.851563 C 498.414063 268.457031 496.929688 268.757813 495.28125 268.757813 C 493.183594 268.757813 491.429688 268.457031 490.015625 267.84375 C 488.601563 267.234375 487.488281 266.316406 486.683594 265.089844 C 485.878906 263.867188 485.453125 262.476563 485.414063 260.929688 Z M 517.0625 268.363281 L 517.0625 245.226563 L 533.789063 245.226563 L 533.789063 247.957031 L 520.121094 247.957031 L 520.121094 255.042969 L 532.921875 255.042969 L 532.921875 257.757813 L 520.121094 257.757813 L 520.121094 265.632813 L 534.328125 265.632813 L 534.328125 268.363281 Z M 564.042969 260.25 L 567.109375 261.027344 C 566.46875 263.539063 565.3125 265.457031 563.644531 266.78125 C 561.976563 268.101563 559.941406 268.757813 557.527344 268.757813 C 555.03125 268.757813 553.007813 268.25 551.445313 267.238281 C 549.882813 266.21875 548.691406 264.75 547.878906 262.824219 C 547.0625 260.898438 546.652344 258.828125 546.652344 256.621094 C 546.652344 254.210938 547.113281 252.109375 548.035156 250.316406 C 548.953125 248.523438 550.265625 247.160156 551.964844 246.226563 C 553.664063 245.296875 555.53125 244.832031 557.574219 244.832031 C 559.890625 244.832031 561.835938 245.417969 563.414063 246.597656 C 564.992188 247.78125 566.09375 249.433594 566.710938 251.570313 L 563.699219 252.28125 C 563.160156 250.597656 562.386719 249.375 561.363281 248.605469 C 560.34375 247.832031 559.0625 247.449219 557.511719 247.449219 C 555.730469 247.449219 554.25 247.875 553.054688 248.726563 C 551.859375 249.585938 551.019531 250.726563 550.539063 252.164063 C 550.054688 253.597656 549.8125 255.078125 549.8125 256.605469 C 549.8125 258.574219 550.097656 260.289063 550.667969 261.757813 C 551.246094 263.226563 552.132813 264.324219 553.34375 265.050781 C 554.558594 265.777344 555.867188 266.140625 557.277344 266.140625 C 558.992188 266.140625 560.441406 265.644531 561.632813 264.65625 C 562.820313 263.667969 563.625 262.195313 564.042969 260.25 Z M 568.339844 268.363281 L 577.226563 245.226563 L 580.523438 245.226563 L 589.996094 268.363281 L 586.503906 268.363281 L 583.804688 261.355469 L 574.128906 261.355469 L 571.59375 268.363281 Z M 575.015625 258.859375 L 582.863281 258.859375 L 580.445313 252.457031 C 579.710938 250.511719 579.164063 248.910156 578.808594 247.65625 C 578.511719 249.140625 578.09375 250.613281 577.558594 252.078125 Z M 592.441406 268.363281 L 592.441406 245.226563 L 600.410156 245.226563 C 602.210938 245.226563 603.582031 245.339844 604.53125 245.558594 C 605.855469 245.863281 606.988281 246.417969 607.925781 247.214844 C 609.144531 248.246094 610.058594 249.5625 610.664063 251.167969 C 611.269531 252.773438 611.574219 254.605469 611.574219 256.667969 C 611.574219 258.425781 611.367188 259.980469 610.953125 261.339844 C 610.542969 262.695313 610.019531 263.824219 609.375 264.710938 C 608.734375 265.601563 608.035156 266.300781 607.269531 266.808594 C 606.507813 267.320313 605.585938 267.707031 604.511719 267.972656 C 603.425781 268.234375 602.1875 268.363281 600.792969 268.363281 Z M 595.503906 265.632813 L 600.441406 265.632813 C 601.96875 265.632813 603.167969 265.492188 604.035156 265.207031 C 604.902344 264.921875 605.59375 264.523438 606.109375 264.007813 C 606.835938 263.285156 607.402344 262.304688 607.808594 261.082031 C 608.210938 259.851563 608.414063 258.371094 608.414063 256.621094 C 608.414063 254.199219 608.015625 252.34375 607.226563 251.042969 C 606.429688 249.738281 605.464844 248.871094 604.328125 248.429688 C 603.507813 248.113281 602.183594 247.957031 600.367188 247.957031 L 595.503906 247.957031 Z M 615.851563 268.363281 L 615.851563 245.226563 L 632.578125 245.226563 L 632.578125 247.957031 L 618.910156 247.957031 L 618.910156 255.042969 L 631.710938 255.042969 L 631.710938 257.757813 L 618.910156 257.757813 L 618.910156 265.632813 L 633.117188 265.632813 L 633.117188 268.363281 Z M 634.804688 268.363281 L 643.691406 245.226563 L 646.988281 245.226563 L 656.460938 268.363281 L 652.96875 268.363281 L 650.269531 261.355469 L 640.59375 261.355469 L 638.058594 268.363281 Z M 641.476563 258.859375 L 649.328125 258.859375 L 646.910156 252.457031 C 646.175781 250.511719 645.628906 248.910156 645.269531 247.65625 C 644.976563 249.140625 644.558594 250.613281 644.019531 252.078125 Z M 658.90625 268.363281 L 658.90625 245.226563 L 666.875 245.226563 C 668.675781 245.226563 670.046875 245.339844 670.996094 245.558594 C 672.320313 245.863281 673.453125 246.417969 674.390625 247.214844 C 675.609375 248.246094 676.523438 249.5625 677.128906 251.167969 C 677.734375 252.773438 678.039063 254.605469 678.039063 256.667969 C 678.039063 258.425781 677.832031 259.980469 677.417969 261.339844 C 677.007813 262.695313 676.484375 263.824219 675.839844 264.710938 C 675.199219 265.601563 674.5 266.300781 673.734375 266.808594 C 672.972656 267.320313 672.050781 267.707031 670.976563 267.972656 C 669.890625 268.234375 668.652344 268.363281 667.257813 268.363281 Z M 661.96875 265.632813 L 666.90625 265.632813 C 668.433594 265.632813 669.632813 265.492188 670.5 265.207031 C 671.367188 264.921875 672.058594 264.523438 672.574219 264.007813 C 673.300781 263.285156 673.867188 262.304688 674.273438 261.082031 C 674.675781 259.851563 674.878906 258.371094 674.878906 256.621094 C 674.878906 254.199219 674.480469 252.34375 673.691406 251.042969 C 672.890625 249.738281 671.929688 248.871094 670.792969 248.429688 C 669.972656 248.113281 668.648438 247.957031 666.832031 247.957031 L 661.96875 247.957031 Z M 681.320313 257.09375 C 681.320313 253.253906 682.347656 250.246094 684.410156 248.074219 C 686.472656 245.90625 689.136719 244.816406 692.402344 244.816406 C 694.535156 244.816406 696.460938 245.328125 698.175781 246.347656 C 699.890625 247.371094 701.199219 248.792969 702.097656 250.617188 C 702.996094 252.4375 703.445313 254.511719 703.445313 256.824219 C 703.445313 259.171875 702.976563 261.273438 702.027344 263.121094 C 701.078125 264.976563 699.738281 266.375 698.003906 267.332031 C 696.261719 268.285156 694.394531 268.757813 692.382813 268.757813 C 690.203125 268.757813 688.257813 268.234375 686.542969 267.179688 C 684.824219 266.128906 683.527344 264.691406 682.644531 262.871094 C 681.761719 261.054688 681.320313 259.125 681.320313 257.09375 Z M 684.476563 257.144531 C 684.476563 259.933594 685.222656 262.125 686.722656 263.730469 C 688.226563 265.335938 690.105469 266.140625 692.367188 266.140625 C 694.675781 266.140625 696.570313 265.332031 698.058594 263.710938 C 699.542969 262.089844 700.292969 259.789063 700.292969 256.808594 C 700.292969 254.929688 699.96875 253.285156 699.335938 251.878906 C 698.699219 250.472656 697.765625 249.382813 696.542969 248.609375 C 695.316406 247.839844 693.941406 247.449219 692.417969 247.449219 C 690.246094 247.449219 688.382813 248.195313 686.820313 249.6875 C 685.257813 251.171875 684.476563 253.664063 684.476563 257.144531 Z M 706.355469 260.929688 L 709.242188 260.675781 C 709.375 261.835938 709.695313 262.78125 710.195313 263.527344 C 710.695313 264.269531 711.472656 264.867188 712.523438 265.324219 C 713.574219 265.785156 714.757813 266.011719 716.074219 266.011719 C 717.242188 266.011719 718.269531 265.839844 719.164063 265.492188 C 720.058594 265.144531 720.726563 264.667969 721.164063 264.066406 C 721.601563 263.457031 721.820313 262.800781 721.820313 262.082031 C 721.820313 261.355469 721.609375 260.726563 721.1875 260.179688 C 720.765625 259.636719 720.070313 259.183594 719.105469 258.816406 C 718.480469 258.574219 717.113281 258.199219 714.984375 257.6875 C 712.863281 257.175781 711.371094 256.695313 710.519531 256.242188 C 709.414063 255.667969 708.589844 254.945313 708.046875 254.085938 C 707.507813 253.230469 707.238281 252.273438 707.238281 251.207031 C 707.238281 250.042969 707.566406 248.949219 708.230469 247.933594 C 708.890625 246.917969 709.863281 246.148438 711.132813 245.617188 C 712.410156 245.097656 713.820313 244.832031 715.378906 244.832031 C 717.097656 244.832031 718.605469 245.105469 719.917969 245.660156 C 721.230469 246.210938 722.238281 247.023438 722.941406 248.097656 C 723.640625 249.167969 724.023438 250.386719 724.078125 251.746094 L 721.144531 251.964844 C 720.980469 250.503906 720.449219 249.394531 719.539063 248.652344 C 718.625 247.902344 717.285156 247.53125 715.507813 247.53125 C 713.652344 247.53125 712.308594 247.871094 711.457031 248.550781 C 710.609375 249.226563 710.183594 250.046875 710.183594 251 C 710.183594 251.835938 710.484375 252.519531 711.085938 253.054688 C 711.675781 253.59375 713.210938 254.140625 715.703125 254.703125 C 718.191406 255.269531 719.898438 255.757813 720.824219 256.179688 C 722.171875 256.804688 723.167969 257.589844 723.808594 258.539063 C 724.449219 259.492188 724.769531 260.589844 724.769531 261.828125 C 724.769531 263.0625 724.417969 264.222656 723.710938 265.308594 C 723.007813 266.398438 721.992188 267.242188 720.671875 267.851563 C 719.355469 268.457031 717.867188 268.757813 716.21875 268.757813 C 714.121094 268.757813 712.367188 268.457031 710.957031 267.84375 C 709.539063 267.234375 708.429688 266.316406 707.621094 265.089844 C 706.816406 263.867188 706.390625 262.476563 706.355469 260.929688 Z M 706.355469 260.929688 "/>
</g>
</g>
</svg>
